<?xml version="1.0" standalone="no"?>
<!DOCTYPE svg PUBLIC "-//W3C//DTD SVG 20010904//EN"
 "http://www.w3.org/TR/2001/REC-SVG-20010904/DTD/svg10.dtd">
<svg version="1.0" xmlns="http://www.w3.org/2000/svg"
 width="500.000000pt" height="500.000000pt" viewBox="0 0 500.000000 500.000000"
 preserveAspectRatio="xMidYMid meet">
<metadata>
Created by potrace 1.16, written by Peter Selinger 2001-2019
</metadata>
<g transform="translate(0.000000,500.000000) scale(0.100000,-0.100000)"
fill="#000000" stroke="none">
<path d="M2351 4895 c-23 -21 -44 -49 -47 -62 -5 -19 -11 -23 -29 -19 -29 7
-102 -45 -111 -79 -3 -14 -15 -30 -26 -36 -27 -14 -58 -69 -58 -101 0 -28 0
-28 -72 -28 -41 -1 -91 -8 -113 -16 -22 -9 -67 -24 -100 -35 -33 -10 -105 -35
-160 -54 -179 -64 -196 -67 -189 -37 7 27 -33 82 -71 98 -68 28 -172 8 -217
-42 -31 -35 -49 -92 -42 -132 16 -91 81 -141 192 -150 51 -4 69 -10 89 -30 22
-22 30 -24 75 -18 28 4 76 20 108 36 62 31 78 30 54 -4 -8 -11 -19 -38 -25
-59 -11 -42 -63 -127 -108 -180 -27 -31 -104 -158 -113 -186 -3 -9 -9 -6 -21
12 -14 21 -15 31 -6 51 14 30 6 44 -69 130 -95 108 -242 188 -346 189 -63 1
-139 -36 -184 -88 -36 -40 -39 -64 -16 -104 16 -27 15 -30 -10 -74 -32 -55
-42 -63 -84 -72 -18 -4 -46 -18 -62 -31 -70 -59 -58 -149 25 -184 58 -25 68
-25 115 1 l38 22 46 -29 c33 -21 44 -33 39 -44 -4 -8 -6 -33 -5 -55 4 -88 -7
-125 -55 -176 -38 -40 -57 -52 -117 -70 -157 -46 -164 -53 -195 -175 -9 -36
-21 -65 -26 -65 -6 0 -31 3 -56 6 -102 14 -200 -84 -225 -222 -4 -27 -21 -53
-58 -91 -49 -51 -51 -55 -50 -105 1 -29 9 -67 17 -84 18 -34 71 -83 91 -83 6
0 -16 -58 -52 -132 -109 -226 -112 -236 -112 -337 0 -85 2 -94 36 -156 67
-121 172 -179 314 -173 57 2 79 0 76 -8 -3 -7 2 -21 10 -32 13 -19 12 -21 -5
-27 -34 -10 -91 -82 -91 -114 0 -38 35 -87 90 -127 55 -41 241 -134 266 -134
19 0 136 -45 192 -74 17 -9 39 -16 49 -16 10 0 24 -9 31 -20 23 -38 93 -80
132 -80 76 0 155 91 132 152 -12 32 -14 31 59 14 96 -23 145 -58 155 -112 8
-44 -9 -72 -57 -90 -73 -30 -99 -96 -64 -164 22 -43 25 -44 300 -125 44 -13
116 -36 160 -51 44 -14 86 -28 93 -30 10 -3 10 -8 2 -25 -17 -31 -5 -63 35
-93 26 -20 35 -34 35 -57 0 -20 9 -38 26 -53 15 -13 35 -32 47 -42 54 -50 100
-83 108 -78 5 3 9 -2 9 -11 0 -26 48 -67 69 -60 14 4 21 0 26 -15 4 -11 17
-28 30 -36 22 -14 30 -14 94 6 l71 23 40 -37 c54 -48 82 -47 132 5 l39 41 42
-16 c61 -23 84 -20 119 14 22 23 35 29 53 24 18 -4 31 1 49 20 15 14 26 31 26
38 0 7 20 25 45 40 29 18 47 37 51 55 4 15 20 40 36 55 23 21 29 34 26 60 -3
29 2 36 32 53 37 22 83 82 76 100 -12 33 221 158 338 181 182 36 251 171 111
218 -49 17 -80 55 -71 88 3 12 24 38 46 56 37 31 42 32 62 18 14 -10 26 -12
39 -6 13 8 22 2 44 -25 61 -81 181 -86 263 -12 12 11 22 26 22 34 0 14 72 63
93 63 8 0 38 17 68 39 60 43 98 63 155 85 153 57 182 70 207 94 33 31 67 92
67 119 0 30 -30 64 -74 84 -53 24 -93 24 -133 -1 l-33 -20 -34 30 c-45 40
-105 155 -89 171 8 8 17 7 36 -6 14 -9 42 -15 63 -15 23 1 66 -10 103 -25 58
-25 74 -27 160 -23 89 3 101 6 166 42 77 41 95 56 98 77 2 8 7 21 12 29 5 8
22 42 38 75 26 54 28 67 23 127 -3 38 -15 85 -27 108 -14 26 -19 49 -15 65 5
19 0 32 -18 50 -14 14 -29 25 -34 25 -4 0 -18 18 -30 39 -13 22 -43 67 -68
100 -43 58 -49 81 -20 81 26 0 57 36 76 90 34 94 30 112 -50 194 -56 58 -73
83 -86 127 -9 30 -25 63 -35 75 -29 31 -85 44 -139 34 -74 -15 -74 -15 -94 53
-10 34 -22 76 -28 94 -5 18 -22 46 -38 63 -28 30 -28 30 -129 28 -94 -2 -102
-1 -126 22 -39 37 -73 99 -86 158 -6 29 -21 65 -33 79 l-22 26 46 43 c50 46
73 53 104 29 26 -19 89 -19 127 0 34 18 69 70 69 103 0 48 -29 83 -95 113 -71
32 -70 30 -107 117 -21 51 -25 68 -16 86 13 31 -12 80 -55 107 -28 17 -46 20
-133 17 -99 -3 -101 -4 -167 -47 -73 -47 -132 -107 -177 -178 -28 -43 -29 -48
-15 -70 14 -21 13 -26 -21 -78 -20 -30 -40 -55 -44 -55 -7 0 -134 179 -191
270 -20 32 -43 77 -52 101 -8 24 -18 52 -22 63 -8 17 -6 17 23 2 46 -24 152
-22 185 4 16 13 41 20 69 20 73 1 146 38 184 93 47 68 52 106 22 165 -18 35
-37 54 -73 74 -68 38 -120 37 -173 -2 -49 -35 -66 -63 -58 -96 6 -22 4 -23
-26 -18 -43 7 -225 61 -264 79 -48 21 -225 47 -292 43 l-61 -3 6 27 c4 22 -2
35 -30 63 -19 19 -44 35 -55 35 -12 0 -24 11 -32 30 -15 37 -74 90 -99 90 -11
0 -37 20 -59 45 -57 65 -95 70 -151 20z m98 -54 c10 -10 31 -40 46 -65 15 -25
29 -46 33 -46 3 0 13 7 23 15 15 14 18 14 33 0 9 -9 16 -25 16 -36 0 -25 -23
-71 -44 -88 -9 -8 -16 -20 -16 -27 0 -20 40 -17 47 4 17 48 84 72 112 38 22
-26 -5 -64 -83 -113 -88 -57 -104 -77 -82 -102 18 -20 21 -41 6 -41 -17 0 -37
53 -70 190 -18 74 -35 141 -39 148 -20 42 -43 -15 -61 -152 -6 -44 -14 -91
-17 -104 l-5 -23 -22 20 c-12 12 -25 21 -29 21 -21 0 -135 61 -141 75 -11 29
-6 72 9 85 13 10 22 8 55 -15 22 -15 45 -34 51 -41 14 -18 49 -18 49 -1 0 7
-22 35 -50 62 -27 27 -50 55 -50 62 0 6 10 19 22 27 20 14 24 14 40 -1 17 -15
19 -15 38 2 11 10 22 27 26 39 10 32 53 86 70 86 7 0 23 -9 33 -19z m1162
-312 c47 -24 74 -74 60 -111 -33 -85 -137 -119 -244 -81 -59 21 -78 9 -47 -30
l21 -27 -23 -1 c-82 -6 -104 5 -263 130 -46 37 -85 52 -85 33 0 -4 20 -27 45
-51 40 -38 45 -48 45 -87 0 -38 -3 -44 -20 -44 -33 0 -75 26 -90 57 -8 15 -16
30 -17 32 -2 2 -12 -4 -22 -13 -22 -20 -40 -14 -106 39 -55 45 -78 55 -120 55
-26 0 -43 -7 -60 -26 -30 -32 -24 -47 26 -67 66 -26 42 -67 -39 -67 -70 0
-112 63 -82 121 17 32 81 65 144 76 64 11 118 0 181 -39 17 -10 36 -18 43 -18
29 0 -5 25 -86 62 -63 29 -82 42 -71 49 43 27 171 2 469 -93 36 -11 95 -26
132 -34 58 -12 73 -11 109 1 53 19 59 13 20 -16 -35 -26 -39 -39 -12 -39 26 0
81 53 81 78 0 48 -40 82 -97 82 l-28 1 30 24 c37 30 54 31 106 4z m-1532 -30
l36 -1 -30 -11 c-37 -15 -104 -52 -127 -70 -34 -27 -18 -27 32 -1 42 22 65 27
128 27 106 1 175 -38 175 -99 0 -62 -101 -106 -157 -69 -34 23 -42 15 -17 -16
17 -21 27 -24 84 -22 36 1 95 9 132 18 83 19 112 19 205 -1 142 -30 222 -16
233 42 4 20 -3 35 -30 65 l-35 38 26 7 c39 9 76 -10 139 -73 53 -52 59 -55 80
-44 21 11 29 9 71 -21 90 -63 101 -68 122 -63 17 4 24 -2 34 -28 31 -78 48
-108 117 -212 82 -123 175 -260 196 -290 14 -19 16 -16 45 40 64 127 203 280
297 325 87 43 132 47 174 18 38 -26 39 -28 78 -113 15 -33 28 -63 30 -66 2 -3
-16 -14 -39 -25 -60 -27 -149 -118 -183 -189 -48 -99 -44 -270 9 -328 11 -13
35 -45 53 -70 41 -60 123 -114 191 -127 64 -12 72 -16 72 -39 0 -10 9 -44 20
-76 11 -32 20 -63 20 -69 0 -6 -43 -60 -96 -121 -94 -109 -193 -233 -228 -288
-24 -39 -12 -47 16 -11 101 129 315 341 409 405 63 42 163 79 218 79 34 0 71
-23 71 -44 0 -46 28 -96 88 -158 36 -37 63 -71 60 -74 -3 -3 -32 -11 -64 -19
-33 -8 -75 -20 -94 -29 -34 -14 -32 -14 45 -9 67 5 83 3 94 -11 23 -27 -11
-53 -93 -71 -148 -34 -250 -95 -337 -202 -145 -179 -200 -470 -122 -646 39
-89 82 -149 134 -187 51 -37 75 -38 106 -4 20 22 30 25 56 20 17 -4 39 -13 47
-22 13 -13 13 -19 -5 -51 -22 -42 -29 -46 -173 -103 -57 -23 -137 -61 -178
-85 -42 -25 -79 -45 -83 -45 -4 0 -22 -11 -41 -25 l-33 -24 -29 45 c-34 54
-107 91 -198 101 -137 14 -325 -91 -391 -219 -12 -25 -19 -58 -19 -97 0 -53 4
-65 30 -94 33 -39 36 -44 18 -44 -28 0 -128 -28 -232 -65 -60 -21 -111 -38
-113 -38 -2 0 -3 14 -3 32 0 19 -9 41 -22 55 -18 19 -32 23 -81 23 -63 0 -92
-12 -225 -88 -98 -57 -133 -66 -200 -53 -47 9 -66 8 -107 -5 -59 -18 -120 -19
-176 -3 -29 9 -49 25 -75 61 -45 60 -78 78 -146 78 -83 0 -159 -59 -143 -110
6 -18 4 -21 -12 -16 -10 3 -47 10 -83 16 -36 5 -116 19 -179 30 -62 11 -118
20 -123 20 -14 0 0 36 33 88 36 56 38 108 7 170 -61 120 -242 212 -397 199
-95 -7 -188 -58 -219 -118 l-22 -45 -68 32 c-37 17 -96 41 -132 54 -103 35
-287 129 -310 157 -11 14 -20 34 -20 44 0 22 37 49 66 49 23 0 58 -36 69 -71
4 -10 10 -19 15 -19 17 0 130 119 166 175 74 116 86 254 37 420 -25 86 -106
218 -187 304 -106 112 -264 191 -383 191 -31 0 -63 26 -63 50 0 10 13 23 30
30 96 40 309 -66 480 -239 147 -149 209 -289 211 -474 1 -121 -5 -160 -37
-248 -28 -76 -67 -140 -119 -197 -25 -29 -32 -43 -24 -48 18 -11 104 86 138
155 132 264 115 466 -62 731 -103 153 -219 251 -397 335 -105 50 -151 59 -210
41 -20 -6 -15 1 21 33 53 46 74 85 83 153 5 35 16 58 42 84 34 36 35 37 99 32
137 -12 336 -157 554 -406 35 -40 66 -70 69 -67 12 11 -64 100 -221 259 l-168
171 17 55 c28 93 37 104 93 119 83 21 202 119 248 204 15 26 18 56 18 157 0
119 -1 127 -29 178 -37 66 -90 115 -164 150 -31 15 -58 27 -60 28 -5 3 90 158
111 181 11 12 40 26 66 32 91 19 168 -16 274 -126 68 -71 132 -151 180 -225
10 -16 22 -28 27 -28 5 0 19 33 30 73 27 93 64 168 116 231 57 70 109 154 123
199 9 25 18 37 32 37 10 0 47 27 81 60 67 64 78 69 98 45 11 -13 19 -10 59 24
25 21 62 48 81 60 42 25 90 28 90 6 0 -14 3 -14 30 0 34 17 37 27 15 45 -28
23 -91 5 -170 -49 -75 -52 -105 -62 -105 -36 0 23 -6 19 -78 -40 -74 -61 -98
-68 -108 -30 -9 35 15 67 86 118 68 48 75 67 26 67 -34 0 -59 -15 -132 -81
-76 -68 -189 -126 -230 -117 -16 3 -13 7 14 21 42 23 43 52 2 49 -3 0 -39 -7
-81 -16 -69 -14 -82 -14 -128 0 -38 11 -55 22 -66 44 -32 61 -5 129 60 150 39
13 99 5 116 -16 13 -16 10 -17 -43 -14 -72 3 -131 -55 -97 -96 11 -13 72 -44
87 -44 3 0 -5 12 -19 27 -21 23 -22 25 -4 18 11 -4 49 -9 85 -12 68 -5 86 0
385 108 50 17 106 36 125 41 19 5 49 13 65 18 17 5 43 7 59 4 16 -2 45 -4 65
-5z m1959 -361 c28 -28 13 -36 -70 -35 -79 1 -87 0 -168 -42 -47 -24 -102 -57
-122 -73 -53 -41 -47 -22 12 44 52 59 100 94 148 108 43 13 186 12 200 -2z
m-2998 -79 c75 -27 134 -68 193 -135 27 -31 34 -43 20 -35 -12 6 -24 15 -28
20 -3 6 -18 16 -33 24 -15 8 -53 30 -85 50 -32 19 -80 41 -107 47 -47 11 -53
10 -120 -21 -70 -32 -94 -33 -74 -2 40 64 139 85 234 52z m3190 -234 c36 -19
42 -68 11 -85 -33 -17 -80 -12 -93 10 -23 36 -78 20 -145 -44 -47 -44 -55 -42
-21 5 27 36 112 96 164 114 50 18 49 18 84 0z m-3441 -117 c49 -30 131 -98
131 -109 0 -5 -21 5 -48 23 -26 18 -67 42 -90 52 l-43 20 -23 -29 c-20 -25
-27 -27 -59 -21 -34 6 -37 10 -37 42 0 26 5 37 23 44 32 14 104 3 146 -22z
m3181 -210 c0 -30 58 -142 95 -186 45 -52 92 -66 190 -57 91 8 85 15 134 -158
l19 -68 -46 -29 c-56 -34 -63 -30 -87 48 -9 31 -21 72 -27 90 -7 23 -16 32
-31 32 -12 0 -42 8 -67 17 -168 63 -270 217 -214 325 12 24 18 28 25 17 5 -8
9 -22 9 -31z m-3022 -91 c2 -34 -1 -81 -7 -104 -12 -44 -69 -109 -117 -133
-129 -64 -199 -132 -225 -217 -13 -47 -23 -51 -58 -27 -26 19 -24 43 11 151
22 68 15 62 138 97 73 20 142 65 179 116 33 46 56 136 47 184 -6 29 -6 30 11
13 11 -11 18 -38 21 -80z m3722 -846 c0 -6 42 -73 94 -151 177 -263 196 -380
83 -515 -42 -50 -76 -68 -159 -86 -95 -20 -206 12 -277 79 -42 39 -59 90 -47
138 4 14 29 48 56 75 46 46 53 49 99 49 38 0 56 -6 78 -24 24 -21 26 -27 18
-52 -14 -39 -50 -56 -102 -49 l-43 6 0 -34 c0 -22 8 -41 23 -55 91 -85 249
-34 307 99 19 45 20 57 10 96 -14 58 -72 173 -149 296 -62 101 -70 122 -48
130 21 9 57 7 57 -2z m-64 -109 c65 -104 129 -231 153 -301 22 -63 22 -64 3
-100 -42 -81 -144 -127 -216 -97 -48 20 -48 41 0 33 45 -8 102 15 128 49 42
58 23 133 -95 368 -27 54 -46 102 -43 107 12 21 31 5 70 -59z m-4298 -38 c12
-4 22 -13 22 -20 0 -8 -29 -70 -65 -138 -81 -154 -95 -194 -96 -268 -1 -74 35
-152 85 -186 51 -34 140 -41 192 -14 54 28 86 65 82 94 -3 21 -7 23 -59 20
-47 -3 -60 0 -84 20 -23 20 -26 29 -20 56 9 44 39 62 101 62 92 0 145 -52 144
-143 -2 -121 -112 -206 -266 -207 -113 0 -184 38 -236 128 -29 51 -33 65 -32
132 1 54 8 93 27 141 37 98 157 329 170 329 7 0 22 -3 35 -6z m57 -179 c-49
-140 -75 -234 -75 -270 0 -30 43 -81 89 -105 30 -15 33 -19 18 -26 -55 -21
-152 55 -164 130 -6 39 11 120 39 183 41 94 125 230 135 220 2 -2 -17 -61 -42
-132z m3570 -917 c55 -30 75 -56 75 -99 0 -60 -33 -89 -103 -89 -55 0 -77 12
-77 40 0 11 15 22 43 30 23 7 47 17 52 22 15 14 -33 46 -87 57 -153 33 -344
-102 -324 -228 7 -45 69 -109 113 -117 71 -13 18 -61 -96 -88 -37 -8 -122 -43
-194 -80 -70 -35 -153 -72 -185 -81 -190 -56 -354 45 -264 162 24 31 102 42
137 19 44 -29 31 -55 -35 -66 -27 -4 -36 -11 -38 -28 -3 -18 4 -26 35 -38 35
-15 44 -15 111 1 77 18 467 145 490 159 17 10 -3 36 -27 36 -30 0 -82 40 -97
75 -21 52 -18 112 10 159 37 64 130 132 221 162 54 18 200 13 240 -8z m-2529
-78 c185 -91 228 -281 82 -356 -27 -13 -48 -28 -48 -33 0 -29 376 -135 523
-147 65 -5 76 -4 107 18 51 35 51 56 -1 60 -84 6 -74 65 13 75 60 7 103 -16
118 -61 32 -98 -89 -183 -225 -157 -94 18 -237 59 -443 127 -56 19 -109 34
-117 34 -16 0 -35 30 -35 54 0 10 21 26 54 40 29 13 61 34 70 47 20 30 21 120
1 158 -31 61 -122 114 -223 132 -77 14 -172 -9 -172 -41 0 -11 5 -20 12 -20
16 0 58 -41 58 -57 0 -23 -39 -53 -69 -53 -40 0 -91 51 -91 91 0 36 43 97 79
111 40 16 141 24 196 16 27 -4 77 -21 111 -38z m1414 -477 c0 -5 -14 -16 -30
-25 -17 -9 -30 -23 -30 -31 0 -7 51 -40 113 -72 109 -58 114 -60 185 -58 40 1
70 -2 67 -7 -3 -4 -30 -22 -60 -39 -48 -27 -54 -34 -45 -51 26 -49 12 -51 -72
-9 -66 33 -101 59 -166 126 -88 90 -109 96 -96 29 7 -42 73 -128 130 -171 22
-16 41 -32 44 -35 3 -3 27 -23 54 -43 40 -30 45 -37 27 -38 -11 -1 -25 -3 -31
-4 -5 -1 -14 -3 -20 -4 -5 0 -10 -19 -10 -41 0 -44 -5 -48 -35 -22 -60 51
-138 183 -180 304 -25 72 -65 77 -65 7 0 -50 82 -267 126 -334 18 -27 29 -51
25 -53 -5 -1 -33 7 -62 19 l-54 21 -42 -47 -41 -48 -30 21 c-16 12 -35 28 -42
37 -17 21 -59 19 -114 -5 -25 -10 -46 -15 -46 -10 0 4 4 10 8 12 10 4 62 89
85 139 29 62 72 268 59 281 -20 20 -40 0 -57 -59 -25 -89 -82 -195 -137 -257
-27 -31 -53 -56 -58 -56 -4 0 -10 14 -14 30 -3 17 -14 33 -23 36 -10 3 -30 10
-45 16 l-28 10 77 72 c83 76 168 164 191 197 16 23 9 69 -11 69 -6 0 -59 -47
-115 -105 -93 -94 -186 -165 -219 -165 -7 0 -9 13 -6 38 4 34 2 38 -31 56 -19
10 -33 22 -31 26 2 4 25 10 51 14 52 7 120 28 167 52 49 26 127 87 127 100 0
7 -16 18 -35 24 -34 11 -44 23 -27 34 4 2 50 -9 100 -26 l93 -31 47 22 48 22
54 -20 c51 -19 56 -20 79 -4 25 16 129 62 144 63 4 0 7 -3 7 -7z"/>
<path d="M2495 3933 c-46 -9 -74 -10 -118 -1 -32 6 -61 7 -65 3 -4 -4 -1 -10
6 -12 6 -3 12 -9 12 -14 0 -12 -92 -12 -124 1 -27 10 -34 2 -14 -18 17 -17
-13 -25 -73 -20 -43 5 -49 3 -44 -12 4 -14 -3 -19 -35 -24 -22 -3 -58 -3 -80
0 -42 7 -57 -9 -19 -21 39 -13 12 -30 -61 -40 -69 -9 -72 -11 -44 -21 l29 -11
-37 -17 c-21 -9 -54 -16 -75 -16 -21 0 -45 -4 -53 -10 -11 -7 -8 -11 15 -21
l30 -12 -62 -19 c-67 -21 -82 -38 -33 -38 17 0 30 -4 30 -9 0 -15 -23 -28 -85
-47 -56 -17 -58 -19 -27 -22 17 -2 32 -7 32 -12 0 -14 -49 -48 -88 -61 -51
-16 -58 -25 -27 -33 41 -10 25 -29 -43 -51 -69 -22 -80 -35 -27 -35 19 0 35
-4 35 -8 0 -17 -39 -44 -96 -67 -34 -14 -52 -26 -44 -29 8 -2 28 -8 43 -13
l28 -8 -68 -50 -68 -50 40 -5 40 -5 -52 -40 c-59 -44 -65 -55 -28 -55 14 0 25
-4 25 -9 0 -5 -26 -33 -57 -61 l-58 -52 37 6 c23 4 39 2 43 -5 8 -12 -37 -63
-77 -87 -38 -22 -35 -36 7 -29 52 9 46 -21 -16 -77 l-51 -46 42 0 c38 0 41 -2
35 -22 -4 -13 -22 -36 -41 -53 -43 -38 -43 -48 1 -39 46 8 46 -9 -1 -70 -20
-26 -34 -50 -30 -53 3 -3 19 0 36 5 24 9 32 8 36 -2 7 -18 -20 -81 -52 -123
-28 -36 -18 -42 27 -16 43 26 47 8 12 -60 -18 -33 -30 -63 -28 -66 3 -2 16 1
30 7 61 28 72 -2 30 -77 -28 -49 -26 -59 9 -43 46 21 62 -29 27 -82 -24 -36
-18 -52 12 -31 12 8 25 15 29 15 5 0 8 -27 8 -60 0 -59 1 -60 22 -49 44 24 55
-33 19 -100 -9 -17 -9 -21 2 -21 8 0 20 7 27 15 16 20 30 19 45 -2 10 -13 10
-27 -1 -67 -7 -27 -12 -52 -10 -53 2 -2 17 8 35 22 44 38 54 25 49 -56 -3 -38
-3 -69 -1 -69 2 0 15 12 29 27 l26 28 20 -25 c16 -19 19 -35 16 -72 -3 -27 -3
-48 -1 -48 2 0 14 7 27 15 41 27 58 10 54 -51 -3 -59 7 -68 37 -34 10 11 22
20 27 20 15 0 48 -64 48 -95 l0 -29 16 22 c8 12 21 22 28 22 21 0 74 -60 87
-97 12 -39 16 -40 43 -13 21 19 22 19 53 -1 18 -11 40 -38 50 -60 20 -47 29
-49 38 -9 4 17 11 30 16 30 25 0 90 -43 106 -70 21 -37 33 -38 33 -4 0 23 3
25 28 20 15 -4 46 -20 70 -36 52 -36 56 -37 48 -5 -4 17 -2 25 6 25 8 0 30
-11 50 -25 44 -30 52 -31 39 -6 -6 10 -7 21 -4 25 9 8 133 8 133 -1 0 -4 -10
-17 -22 -30 -21 -22 -21 -24 -3 -17 11 4 27 13 35 19 21 17 77 45 90 45 7 0 9
-8 5 -20 -9 -27 -3 -26 54 15 59 43 85 46 79 10 -3 -14 -5 -25 -4 -25 1 0 27
25 59 55 63 60 104 74 93 30 -4 -14 -3 -25 0 -25 4 0 33 27 66 60 63 63 75 69
84 45 9 -24 19 -18 33 20 25 70 83 117 97 80 10 -26 21 -17 29 23 12 67 53
107 69 66 3 -8 10 -12 16 -9 6 4 8 11 4 16 -8 14 6 67 23 84 10 11 19 12 33 5
17 -9 20 -6 25 27 13 82 39 105 68 62 16 -22 31 -12 16 11 -14 24 -10 66 9 90
16 20 19 21 31 6 22 -27 32 -18 25 24 -7 46 1 90 18 90 6 0 20 -8 31 -18 19
-17 20 -16 13 13 -18 84 -19 105 -2 111 10 4 25 -1 36 -11 24 -21 25 -14 5 42
-22 63 -8 86 37 62 28 -15 31 -7 14 36 -28 66 -16 124 20 94 21 -17 25 -7 9
24 -8 15 -17 43 -21 62 -5 29 -3 35 11 35 9 0 25 -5 36 -10 27 -15 24 -3 -15
59 -33 53 -37 81 -11 81 7 0 18 -7 25 -15 7 -8 19 -15 26 -15 9 0 0 23 -26 65
-22 36 -40 70 -40 75 0 18 20 20 49 5 17 -8 33 -15 36 -15 3 0 -17 30 -45 67
-57 75 -55 99 5 70 19 -9 35 -14 35 -11 0 3 -23 32 -51 66 -56 68 -55 93 3 65
18 -9 35 -14 37 -11 3 2 -21 27 -52 55 -72 64 -77 94 -13 69 40 -15 31 2 -24
43 -27 21 -50 42 -50 47 0 5 17 6 38 3 41 -6 42 -7 -35 56 -29 24 -53 47 -53
52 0 5 16 9 35 9 19 0 35 5 35 10 0 6 -4 10 -9 10 -14 0 -121 74 -121 83 0 5
18 7 40 3 41 -6 56 8 22 22 -29 11 -112 66 -112 74 0 4 19 8 43 10 l42 3 -80
40 c-44 22 -81 45 -83 52 -2 7 12 13 40 15 l43 3 -45 14 c-93 27 -115 37 -118
54 -3 14 4 17 34 17 48 0 35 12 -36 35 -69 22 -84 35 -42 35 51 0 38 16 -38
47 -74 30 -87 43 -43 43 39 0 18 14 -50 35 -59 18 -59 18 -30 30 27 11 25 12
-51 31 -75 18 -114 44 -67 44 12 0 21 4 21 9 0 4 -32 11 -72 15 -39 3 -74 9
-77 11 -2 3 4 11 14 19 16 12 10 14 -56 20 -86 9 -96 13 -72 32 15 11 7 12
-64 7 -82 -6 -97 -1 -71 25 16 16 3 16 -72 -4 -66 -17 -81 -14 -60 11 18 22
13 23 -55 8z m247 -101 c356 -96 638 -341 828 -721 158 -315 203 -604 135
-866 -73 -280 -133 -418 -269 -620 -74 -109 -226 -264 -325 -330 -206 -136
-402 -191 -656 -183 -180 6 -259 26 -440 108 -188 85 -416 294 -560 512 -101
152 -191 362 -214 495 -17 99 -24 412 -11 489 14 85 44 190 77 269 171 418
487 727 853 835 114 34 161 39 340 35 127 -2 183 -8 242 -23z"/>
<path d="M2320 3794 c-258 -50 -489 -193 -679 -421 -142 -170 -257 -388 -309
-583 -24 -89 -25 -109 -24 -304 3 -271 16 -335 112 -541 73 -158 257 -401 381
-506 174 -147 363 -241 539 -269 196 -31 379 -1 566 91 320 159 627 567 719
955 15 61 16 107 12 295 -3 154 -10 241 -20 279 -104 382 -408 755 -747 919
-135 66 -210 83 -375 86 -82 2 -161 1 -175 -1z"/>
<path d="M4336 2504 c-141 -141 -226 -358 -226 -577 0 -171 35 -250 169 -382
65 -63 84 -69 27 -7 -62 66 -107 131 -139 200 -30 64 -32 73 -32 187 0 105 4
131 28 205 39 117 129 297 174 351 84 97 83 107 -1 23z"/>
</g>
</svg>
